<mxfile host="app.diagrams.net" agent="Mozilla/5.0 (Windows NT 10.0; Win64; x64) AppleWebKit/537.36 (KHTML, like Gecko) Chrome/127.0.0.0 Safari/537.36 OPR/113.0.0.0" version="24.7.17">
  <diagram name="Page-1" id="XWlx6krxtrrmPYTv1qRd">
    <mxGraphModel dx="1129" dy="654" grid="1" gridSize="10" guides="1" tooltips="1" connect="1" arrows="1" fold="1" page="1" pageScale="1" pageWidth="827" pageHeight="1169" math="0" shadow="0">
      <root>
        <mxCell id="0" />
        <mxCell id="1" parent="0" />
        <mxCell id="YLqXhZ0otrEL3I6GMskV-1" value="&lt;h1 style=&quot;margin-top: 0px;&quot;&gt;Fluxograma&lt;/h1&gt;&lt;p style=&quot;font-size: 20px;&quot;&gt;&lt;font style=&quot;font-size: 20px;&quot;&gt;Recebe uma idade e exibe a mensagem &lt;b&gt;Maior de Idade&lt;/b&gt;, caso a idade seja maior ou igual a 18.&lt;/font&gt;&lt;/p&gt;" style="text;html=1;whiteSpace=wrap;overflow=hidden;rounded=0;" vertex="1" parent="1">
          <mxGeometry x="20" y="10" width="460" height="180" as="geometry" />
        </mxCell>
        <mxCell id="YLqXhZ0otrEL3I6GMskV-2" value="&lt;span style=&quot;font-family: Georgia; font-size: 20px;&quot;&gt;Inicio&lt;/span&gt;" style="ellipse;whiteSpace=wrap;html=1;" vertex="1" parent="1">
          <mxGeometry x="310" y="160" width="160" height="90" as="geometry" />
        </mxCell>
        <mxCell id="YLqXhZ0otrEL3I6GMskV-3" value="" style="ellipse;whiteSpace=wrap;html=1;" vertex="1" parent="1">
          <mxGeometry x="300" y="850" width="160" height="90" as="geometry" />
        </mxCell>
        <mxCell id="YLqXhZ0otrEL3I6GMskV-4" value="&lt;span style=&quot;color: rgb(0, 0, 0); font-family: Georgia; font-size: 20px; font-style: normal; font-variant-ligatures: normal; font-variant-caps: normal; font-weight: 400; letter-spacing: normal; orphans: 2; text-align: center; text-indent: 0px; text-transform: none; widows: 2; word-spacing: 0px; -webkit-text-stroke-width: 0px; white-space: normal; background-color: rgb(251, 251, 251); text-decoration-thickness: initial; text-decoration-style: initial; text-decoration-color: initial; display: inline !important; float: none;&quot;&gt;Fim&lt;/span&gt;&lt;div&gt;&lt;span style=&quot;color: rgb(0, 0, 0); font-family: Georgia; font-size: 20px; font-style: normal; font-variant-ligatures: normal; font-variant-caps: normal; font-weight: 400; letter-spacing: normal; orphans: 2; text-align: center; text-indent: 0px; text-transform: none; widows: 2; word-spacing: 0px; -webkit-text-stroke-width: 0px; white-space: normal; background-color: rgb(251, 251, 251); text-decoration-thickness: initial; text-decoration-style: initial; text-decoration-color: initial; display: inline !important; float: none;&quot;&gt;&lt;br&gt;&lt;/span&gt;&lt;/div&gt;" style="text;whiteSpace=wrap;html=1;" vertex="1" parent="1">
          <mxGeometry x="360" y="870" width="80" height="50" as="geometry" />
        </mxCell>
        <mxCell id="YLqXhZ0otrEL3I6GMskV-5" value="" style="strokeWidth=2;html=1;shape=mxgraph.flowchart.display;whiteSpace=wrap;" vertex="1" parent="1">
          <mxGeometry x="295" y="275" width="170" height="100" as="geometry" />
        </mxCell>
        <mxCell id="YLqXhZ0otrEL3I6GMskV-6" value="&lt;div style=&quot;text-align: center;&quot;&gt;&lt;span style=&quot;background-color: initial; font-size: 20px;&quot;&gt;&lt;font face=&quot;Georgia&quot;&gt;&quot;Digite a&lt;/font&gt;&lt;/span&gt;&lt;span style=&quot;font-family: Georgia; background-color: initial; font-size: 20px;&quot;&gt;&amp;nbsp;Idade&quot;&lt;/span&gt;&lt;/div&gt;" style="text;whiteSpace=wrap;html=1;" vertex="1" parent="1">
          <mxGeometry x="310" y="305" width="160" height="40" as="geometry" />
        </mxCell>
        <mxCell id="YLqXhZ0otrEL3I6GMskV-7" value="" style="html=1;strokeWidth=2;shape=manualInput;whiteSpace=wrap;rounded=1;size=26;arcSize=11;" vertex="1" parent="1">
          <mxGeometry x="300" y="400" width="160" height="80" as="geometry" />
        </mxCell>
        <mxCell id="YLqXhZ0otrEL3I6GMskV-8" value="&lt;span style=&quot;color: rgb(0, 0, 0); font-family: Georgia; font-size: 20px; font-style: normal; font-variant-ligatures: normal; font-variant-caps: normal; font-weight: 400; letter-spacing: normal; orphans: 2; text-align: center; text-indent: 0px; text-transform: none; widows: 2; word-spacing: 0px; -webkit-text-stroke-width: 0px; white-space: normal; background-color: rgb(251, 251, 251); text-decoration-thickness: initial; text-decoration-style: initial; text-decoration-color: initial; display: inline !important; float: none;&quot;&gt;Idade (inteiro)&lt;/span&gt;" style="text;whiteSpace=wrap;html=1;" vertex="1" parent="1">
          <mxGeometry x="310" y="430" width="150" height="50" as="geometry" />
        </mxCell>
        <mxCell id="YLqXhZ0otrEL3I6GMskV-19" style="edgeStyle=orthogonalEdgeStyle;rounded=0;orthogonalLoop=1;jettySize=auto;html=1;exitX=1;exitY=0.5;exitDx=0;exitDy=0;exitPerimeter=0;" edge="1" parent="1" source="YLqXhZ0otrEL3I6GMskV-9" target="YLqXhZ0otrEL3I6GMskV-13">
          <mxGeometry relative="1" as="geometry" />
        </mxCell>
        <mxCell id="YLqXhZ0otrEL3I6GMskV-9" value="" style="strokeWidth=2;html=1;shape=mxgraph.flowchart.decision;whiteSpace=wrap;" vertex="1" parent="1">
          <mxGeometry x="300" y="515" width="170" height="140" as="geometry" />
        </mxCell>
        <mxCell id="YLqXhZ0otrEL3I6GMskV-10" value="&lt;span style=&quot;color: rgb(0, 0, 0); font-family: Georgia; font-size: 20px; font-style: normal; font-variant-ligatures: normal; font-variant-caps: normal; font-weight: 400; letter-spacing: normal; orphans: 2; text-align: center; text-indent: 0px; text-transform: none; widows: 2; word-spacing: 0px; -webkit-text-stroke-width: 0px; white-space: normal; background-color: rgb(251, 251, 251); text-decoration-thickness: initial; text-decoration-style: initial; text-decoration-color: initial; display: inline !important; float: none;&quot;&gt;Idade&amp;gt;=18&lt;/span&gt;" style="text;whiteSpace=wrap;html=1;" vertex="1" parent="1">
          <mxGeometry x="335" y="560" width="90" height="50" as="geometry" />
        </mxCell>
        <mxCell id="YLqXhZ0otrEL3I6GMskV-25" style="edgeStyle=orthogonalEdgeStyle;rounded=0;orthogonalLoop=1;jettySize=auto;html=1;exitX=0.5;exitY=1;exitDx=0;exitDy=0;exitPerimeter=0;entryX=0.5;entryY=0;entryDx=0;entryDy=0;" edge="1" parent="1" source="YLqXhZ0otrEL3I6GMskV-11" target="YLqXhZ0otrEL3I6GMskV-3">
          <mxGeometry relative="1" as="geometry" />
        </mxCell>
        <mxCell id="YLqXhZ0otrEL3I6GMskV-11" value="" style="verticalLabelPosition=bottom;verticalAlign=top;html=1;shape=mxgraph.flowchart.on-page_reference;" vertex="1" parent="1">
          <mxGeometry x="360" y="760" width="40" height="40" as="geometry" />
        </mxCell>
        <mxCell id="YLqXhZ0otrEL3I6GMskV-12" style="edgeStyle=orthogonalEdgeStyle;rounded=0;orthogonalLoop=1;jettySize=auto;html=1;exitX=0.75;exitY=1;exitDx=0;exitDy=0;entryX=0.892;entryY=1.055;entryDx=0;entryDy=0;entryPerimeter=0;" edge="1" parent="1" source="YLqXhZ0otrEL3I6GMskV-10" target="YLqXhZ0otrEL3I6GMskV-10">
          <mxGeometry relative="1" as="geometry" />
        </mxCell>
        <mxCell id="YLqXhZ0otrEL3I6GMskV-13" value="" style="strokeWidth=2;html=1;shape=mxgraph.flowchart.display;whiteSpace=wrap;" vertex="1" parent="1">
          <mxGeometry x="460" y="660" width="170" height="100" as="geometry" />
        </mxCell>
        <mxCell id="YLqXhZ0otrEL3I6GMskV-14" value="&lt;div style=&quot;text-align: center;&quot;&gt;&lt;span style=&quot;background-color: initial; font-size: 20px;&quot;&gt;&lt;font face=&quot;Georgia&quot;&gt;&quot;Maior de idade&lt;/font&gt;&lt;/span&gt;&lt;span style=&quot;font-family: Georgia; background-color: initial; font-size: 20px;&quot;&gt;&quot;&lt;/span&gt;&lt;/div&gt;" style="text;whiteSpace=wrap;html=1;" vertex="1" parent="1">
          <mxGeometry x="470" y="690" width="160" height="40" as="geometry" />
        </mxCell>
        <mxCell id="YLqXhZ0otrEL3I6GMskV-15" style="edgeStyle=orthogonalEdgeStyle;rounded=0;orthogonalLoop=1;jettySize=auto;html=1;exitX=0.5;exitY=1;exitDx=0;exitDy=0;entryX=0.56;entryY=-0.05;entryDx=0;entryDy=0;entryPerimeter=0;" edge="1" parent="1" source="YLqXhZ0otrEL3I6GMskV-2" target="YLqXhZ0otrEL3I6GMskV-5">
          <mxGeometry relative="1" as="geometry" />
        </mxCell>
        <mxCell id="YLqXhZ0otrEL3I6GMskV-16" style="edgeStyle=orthogonalEdgeStyle;rounded=0;orthogonalLoop=1;jettySize=auto;html=1;exitX=0.5;exitY=1;exitDx=0;exitDy=0;exitPerimeter=0;entryX=0.541;entryY=0.128;entryDx=0;entryDy=0;entryPerimeter=0;" edge="1" parent="1" source="YLqXhZ0otrEL3I6GMskV-5" target="YLqXhZ0otrEL3I6GMskV-7">
          <mxGeometry relative="1" as="geometry" />
        </mxCell>
        <mxCell id="YLqXhZ0otrEL3I6GMskV-18" style="edgeStyle=orthogonalEdgeStyle;rounded=0;orthogonalLoop=1;jettySize=auto;html=1;exitX=0.5;exitY=1;exitDx=0;exitDy=0;entryX=0.494;entryY=0.042;entryDx=0;entryDy=0;entryPerimeter=0;" edge="1" parent="1" source="YLqXhZ0otrEL3I6GMskV-8" target="YLqXhZ0otrEL3I6GMskV-9">
          <mxGeometry relative="1" as="geometry" />
        </mxCell>
        <mxCell id="YLqXhZ0otrEL3I6GMskV-20" style="edgeStyle=orthogonalEdgeStyle;rounded=0;orthogonalLoop=1;jettySize=auto;html=1;exitX=0.5;exitY=1;exitDx=0;exitDy=0;exitPerimeter=0;entryX=1;entryY=0.5;entryDx=0;entryDy=0;entryPerimeter=0;" edge="1" parent="1" source="YLqXhZ0otrEL3I6GMskV-13" target="YLqXhZ0otrEL3I6GMskV-11">
          <mxGeometry relative="1" as="geometry" />
        </mxCell>
        <mxCell id="YLqXhZ0otrEL3I6GMskV-21" style="edgeStyle=orthogonalEdgeStyle;rounded=0;orthogonalLoop=1;jettySize=auto;html=1;exitX=0;exitY=0.5;exitDx=0;exitDy=0;exitPerimeter=0;entryX=0;entryY=0.5;entryDx=0;entryDy=0;entryPerimeter=0;" edge="1" parent="1" source="YLqXhZ0otrEL3I6GMskV-9" target="YLqXhZ0otrEL3I6GMskV-11">
          <mxGeometry relative="1" as="geometry">
            <Array as="points">
              <mxPoint x="230" y="585" />
              <mxPoint x="230" y="780" />
            </Array>
          </mxGeometry>
        </mxCell>
        <mxCell id="YLqXhZ0otrEL3I6GMskV-23" value="&lt;div style=&quot;text-align: center;&quot;&gt;&lt;font face=&quot;Georgia&quot;&gt;&lt;span style=&quot;font-size: 20px;&quot;&gt;Verdadeiro&lt;/span&gt;&lt;/font&gt;&lt;/div&gt;" style="text;whiteSpace=wrap;html=1;" vertex="1" parent="1">
          <mxGeometry x="480" y="550" width="160" height="40" as="geometry" />
        </mxCell>
        <mxCell id="YLqXhZ0otrEL3I6GMskV-24" value="&lt;div style=&quot;text-align: center;&quot;&gt;&lt;font face=&quot;Georgia&quot;&gt;&lt;span style=&quot;font-size: 20px;&quot;&gt;Falso&lt;/span&gt;&lt;/font&gt;&lt;/div&gt;" style="text;whiteSpace=wrap;html=1;" vertex="1" parent="1">
          <mxGeometry x="230" y="550" width="160" height="40" as="geometry" />
        </mxCell>
        <mxCell id="YLqXhZ0otrEL3I6GMskV-89" value="&lt;span style=&quot;font-family: Georgia; font-size: 20px;&quot;&gt;Inicio&lt;/span&gt;" style="ellipse;whiteSpace=wrap;html=1;" vertex="1" parent="1">
          <mxGeometry x="1116" y="140" width="160" height="90" as="geometry" />
        </mxCell>
        <mxCell id="YLqXhZ0otrEL3I6GMskV-90" value="" style="ellipse;whiteSpace=wrap;html=1;" vertex="1" parent="1">
          <mxGeometry x="1106" y="830" width="160" height="90" as="geometry" />
        </mxCell>
        <mxCell id="YLqXhZ0otrEL3I6GMskV-91" value="&lt;span style=&quot;color: rgb(0, 0, 0); font-family: Georgia; font-size: 20px; font-style: normal; font-variant-ligatures: normal; font-variant-caps: normal; font-weight: 400; letter-spacing: normal; orphans: 2; text-align: center; text-indent: 0px; text-transform: none; widows: 2; word-spacing: 0px; -webkit-text-stroke-width: 0px; white-space: normal; background-color: rgb(251, 251, 251); text-decoration-thickness: initial; text-decoration-style: initial; text-decoration-color: initial; display: inline !important; float: none;&quot;&gt;Fim&lt;/span&gt;&lt;div&gt;&lt;span style=&quot;color: rgb(0, 0, 0); font-family: Georgia; font-size: 20px; font-style: normal; font-variant-ligatures: normal; font-variant-caps: normal; font-weight: 400; letter-spacing: normal; orphans: 2; text-align: center; text-indent: 0px; text-transform: none; widows: 2; word-spacing: 0px; -webkit-text-stroke-width: 0px; white-space: normal; background-color: rgb(251, 251, 251); text-decoration-thickness: initial; text-decoration-style: initial; text-decoration-color: initial; display: inline !important; float: none;&quot;&gt;&lt;br&gt;&lt;/span&gt;&lt;/div&gt;" style="text;whiteSpace=wrap;html=1;" vertex="1" parent="1">
          <mxGeometry x="1166" y="850" width="80" height="50" as="geometry" />
        </mxCell>
        <mxCell id="YLqXhZ0otrEL3I6GMskV-92" value="" style="strokeWidth=2;html=1;shape=mxgraph.flowchart.display;whiteSpace=wrap;" vertex="1" parent="1">
          <mxGeometry x="1101" y="255" width="170" height="100" as="geometry" />
        </mxCell>
        <mxCell id="YLqXhZ0otrEL3I6GMskV-93" value="&lt;div style=&quot;text-align: center;&quot;&gt;&lt;span style=&quot;background-color: initial; font-size: 20px;&quot;&gt;&lt;font face=&quot;Georgia&quot;&gt;&quot;Digite a&lt;/font&gt;&lt;/span&gt;&lt;span style=&quot;font-family: Georgia; background-color: initial; font-size: 20px;&quot;&gt;&amp;nbsp;Idade&quot;&lt;/span&gt;&lt;/div&gt;" style="text;whiteSpace=wrap;html=1;" vertex="1" parent="1">
          <mxGeometry x="1116" y="285" width="160" height="40" as="geometry" />
        </mxCell>
        <mxCell id="YLqXhZ0otrEL3I6GMskV-94" value="" style="html=1;strokeWidth=2;shape=manualInput;whiteSpace=wrap;rounded=1;size=26;arcSize=11;" vertex="1" parent="1">
          <mxGeometry x="1106" y="380" width="160" height="80" as="geometry" />
        </mxCell>
        <mxCell id="YLqXhZ0otrEL3I6GMskV-95" value="&lt;span style=&quot;color: rgb(0, 0, 0); font-family: Georgia; font-size: 20px; font-style: normal; font-variant-ligatures: normal; font-variant-caps: normal; font-weight: 400; letter-spacing: normal; orphans: 2; text-align: center; text-indent: 0px; text-transform: none; widows: 2; word-spacing: 0px; -webkit-text-stroke-width: 0px; white-space: normal; background-color: rgb(251, 251, 251); text-decoration-thickness: initial; text-decoration-style: initial; text-decoration-color: initial; display: inline !important; float: none;&quot;&gt;Idade (inteiro)&lt;/span&gt;" style="text;whiteSpace=wrap;html=1;" vertex="1" parent="1">
          <mxGeometry x="1116" y="410" width="150" height="50" as="geometry" />
        </mxCell>
        <mxCell id="YLqXhZ0otrEL3I6GMskV-96" style="edgeStyle=orthogonalEdgeStyle;rounded=0;orthogonalLoop=1;jettySize=auto;html=1;exitX=1;exitY=0.5;exitDx=0;exitDy=0;exitPerimeter=0;" edge="1" parent="1" source="YLqXhZ0otrEL3I6GMskV-97" target="YLqXhZ0otrEL3I6GMskV-102">
          <mxGeometry relative="1" as="geometry" />
        </mxCell>
        <mxCell id="YLqXhZ0otrEL3I6GMskV-97" value="" style="strokeWidth=2;html=1;shape=mxgraph.flowchart.decision;whiteSpace=wrap;" vertex="1" parent="1">
          <mxGeometry x="1106" y="495" width="170" height="140" as="geometry" />
        </mxCell>
        <mxCell id="YLqXhZ0otrEL3I6GMskV-98" value="&lt;span style=&quot;color: rgb(0, 0, 0); font-family: Georgia; font-size: 20px; font-style: normal; font-variant-ligatures: normal; font-variant-caps: normal; font-weight: 400; letter-spacing: normal; orphans: 2; text-align: center; text-indent: 0px; text-transform: none; widows: 2; word-spacing: 0px; -webkit-text-stroke-width: 0px; white-space: normal; background-color: rgb(251, 251, 251); text-decoration-thickness: initial; text-decoration-style: initial; text-decoration-color: initial; display: inline !important; float: none;&quot;&gt;Idade&amp;gt;=18&lt;/span&gt;" style="text;whiteSpace=wrap;html=1;" vertex="1" parent="1">
          <mxGeometry x="1141" y="540" width="90" height="50" as="geometry" />
        </mxCell>
        <mxCell id="YLqXhZ0otrEL3I6GMskV-99" style="edgeStyle=orthogonalEdgeStyle;rounded=0;orthogonalLoop=1;jettySize=auto;html=1;exitX=0.5;exitY=1;exitDx=0;exitDy=0;exitPerimeter=0;entryX=0.5;entryY=0;entryDx=0;entryDy=0;" edge="1" parent="1" source="YLqXhZ0otrEL3I6GMskV-100" target="YLqXhZ0otrEL3I6GMskV-90">
          <mxGeometry relative="1" as="geometry" />
        </mxCell>
        <mxCell id="YLqXhZ0otrEL3I6GMskV-100" value="" style="verticalLabelPosition=bottom;verticalAlign=top;html=1;shape=mxgraph.flowchart.on-page_reference;" vertex="1" parent="1">
          <mxGeometry x="1166" y="740" width="40" height="40" as="geometry" />
        </mxCell>
        <mxCell id="YLqXhZ0otrEL3I6GMskV-101" style="edgeStyle=orthogonalEdgeStyle;rounded=0;orthogonalLoop=1;jettySize=auto;html=1;exitX=0.75;exitY=1;exitDx=0;exitDy=0;entryX=0.892;entryY=1.055;entryDx=0;entryDy=0;entryPerimeter=0;" edge="1" parent="1" source="YLqXhZ0otrEL3I6GMskV-98" target="YLqXhZ0otrEL3I6GMskV-98">
          <mxGeometry relative="1" as="geometry" />
        </mxCell>
        <mxCell id="YLqXhZ0otrEL3I6GMskV-102" value="" style="strokeWidth=2;html=1;shape=mxgraph.flowchart.display;whiteSpace=wrap;" vertex="1" parent="1">
          <mxGeometry x="1266" y="640" width="170" height="100" as="geometry" />
        </mxCell>
        <mxCell id="YLqXhZ0otrEL3I6GMskV-103" value="&lt;div style=&quot;text-align: center;&quot;&gt;&lt;span style=&quot;background-color: initial; font-size: 20px;&quot;&gt;&lt;font face=&quot;Georgia&quot;&gt;&quot;Maior de idade&lt;/font&gt;&lt;/span&gt;&lt;span style=&quot;font-family: Georgia; background-color: initial; font-size: 20px;&quot;&gt;&quot;&lt;/span&gt;&lt;/div&gt;" style="text;whiteSpace=wrap;html=1;" vertex="1" parent="1">
          <mxGeometry x="1276" y="670" width="160" height="40" as="geometry" />
        </mxCell>
        <mxCell id="YLqXhZ0otrEL3I6GMskV-104" style="edgeStyle=orthogonalEdgeStyle;rounded=0;orthogonalLoop=1;jettySize=auto;html=1;exitX=0.5;exitY=1;exitDx=0;exitDy=0;entryX=0.56;entryY=-0.05;entryDx=0;entryDy=0;entryPerimeter=0;" edge="1" parent="1" source="YLqXhZ0otrEL3I6GMskV-89" target="YLqXhZ0otrEL3I6GMskV-92">
          <mxGeometry relative="1" as="geometry" />
        </mxCell>
        <mxCell id="YLqXhZ0otrEL3I6GMskV-105" style="edgeStyle=orthogonalEdgeStyle;rounded=0;orthogonalLoop=1;jettySize=auto;html=1;exitX=0.5;exitY=1;exitDx=0;exitDy=0;exitPerimeter=0;entryX=0.541;entryY=0.128;entryDx=0;entryDy=0;entryPerimeter=0;" edge="1" parent="1" source="YLqXhZ0otrEL3I6GMskV-92" target="YLqXhZ0otrEL3I6GMskV-94">
          <mxGeometry relative="1" as="geometry" />
        </mxCell>
        <mxCell id="YLqXhZ0otrEL3I6GMskV-106" style="edgeStyle=orthogonalEdgeStyle;rounded=0;orthogonalLoop=1;jettySize=auto;html=1;exitX=0.5;exitY=1;exitDx=0;exitDy=0;entryX=0.494;entryY=0.042;entryDx=0;entryDy=0;entryPerimeter=0;" edge="1" parent="1" source="YLqXhZ0otrEL3I6GMskV-95" target="YLqXhZ0otrEL3I6GMskV-97">
          <mxGeometry relative="1" as="geometry" />
        </mxCell>
        <mxCell id="YLqXhZ0otrEL3I6GMskV-107" style="edgeStyle=orthogonalEdgeStyle;rounded=0;orthogonalLoop=1;jettySize=auto;html=1;exitX=0.5;exitY=1;exitDx=0;exitDy=0;exitPerimeter=0;entryX=1;entryY=0.5;entryDx=0;entryDy=0;entryPerimeter=0;" edge="1" parent="1" source="YLqXhZ0otrEL3I6GMskV-102" target="YLqXhZ0otrEL3I6GMskV-100">
          <mxGeometry relative="1" as="geometry" />
        </mxCell>
        <mxCell id="YLqXhZ0otrEL3I6GMskV-109" value="&lt;div style=&quot;text-align: center;&quot;&gt;&lt;font face=&quot;Georgia&quot;&gt;&lt;span style=&quot;font-size: 20px;&quot;&gt;Verdadeiro&lt;/span&gt;&lt;/font&gt;&lt;/div&gt;" style="text;whiteSpace=wrap;html=1;" vertex="1" parent="1">
          <mxGeometry x="1286" y="530" width="160" height="40" as="geometry" />
        </mxCell>
        <mxCell id="YLqXhZ0otrEL3I6GMskV-110" value="&lt;div style=&quot;text-align: center;&quot;&gt;&lt;font face=&quot;Georgia&quot;&gt;&lt;span style=&quot;font-size: 20px;&quot;&gt;Falso&lt;/span&gt;&lt;/font&gt;&lt;/div&gt;" style="text;whiteSpace=wrap;html=1;" vertex="1" parent="1">
          <mxGeometry x="910" y="475" width="160" height="40" as="geometry" />
        </mxCell>
        <mxCell id="YLqXhZ0otrEL3I6GMskV-111" value="&lt;h1 style=&quot;forced-color-adjust: none; color: rgb(0, 0, 0); font-family: Helvetica; font-style: normal; font-variant-ligatures: normal; font-variant-caps: normal; letter-spacing: normal; orphans: 2; text-align: left; text-indent: 0px; text-transform: none; widows: 2; word-spacing: 0px; -webkit-text-stroke-width: 0px; white-space: normal; background-color: rgb(251, 251, 251); text-decoration-thickness: initial; text-decoration-style: initial; text-decoration-color: initial; margin-top: 0px;&quot;&gt;Estrutura de seleção composta&lt;/h1&gt;" style="text;whiteSpace=wrap;html=1;" vertex="1" parent="1">
          <mxGeometry x="1061" y="20" width="360" height="70" as="geometry" />
        </mxCell>
        <mxCell id="YLqXhZ0otrEL3I6GMskV-112" value="" style="strokeWidth=2;html=1;shape=mxgraph.flowchart.display;whiteSpace=wrap;" vertex="1" parent="1">
          <mxGeometry x="910" y="635" width="170" height="100" as="geometry" />
        </mxCell>
        <mxCell id="YLqXhZ0otrEL3I6GMskV-113" value="&lt;div style=&quot;text-align: center;&quot;&gt;&lt;span style=&quot;background-color: initial; font-size: 20px;&quot;&gt;&lt;font face=&quot;Georgia&quot;&gt;&quot;Menor de idade&lt;/font&gt;&lt;/span&gt;&lt;span style=&quot;font-family: Georgia; background-color: initial; font-size: 20px;&quot;&gt;&quot;&lt;/span&gt;&lt;/div&gt;" style="text;whiteSpace=wrap;html=1;" vertex="1" parent="1">
          <mxGeometry x="920" y="665" width="160" height="40" as="geometry" />
        </mxCell>
        <mxCell id="YLqXhZ0otrEL3I6GMskV-116" style="edgeStyle=orthogonalEdgeStyle;rounded=0;orthogonalLoop=1;jettySize=auto;html=1;exitX=0;exitY=0.5;exitDx=0;exitDy=0;exitPerimeter=0;entryX=0.5;entryY=0;entryDx=0;entryDy=0;entryPerimeter=0;" edge="1" parent="1" source="YLqXhZ0otrEL3I6GMskV-97" target="YLqXhZ0otrEL3I6GMskV-112">
          <mxGeometry relative="1" as="geometry" />
        </mxCell>
        <mxCell id="YLqXhZ0otrEL3I6GMskV-119" style="edgeStyle=orthogonalEdgeStyle;rounded=0;orthogonalLoop=1;jettySize=auto;html=1;exitX=0.5;exitY=1;exitDx=0;exitDy=0;exitPerimeter=0;entryX=0;entryY=0.5;entryDx=0;entryDy=0;entryPerimeter=0;" edge="1" parent="1" source="YLqXhZ0otrEL3I6GMskV-112" target="YLqXhZ0otrEL3I6GMskV-100">
          <mxGeometry relative="1" as="geometry" />
        </mxCell>
      </root>
    </mxGraphModel>
  </diagram>
</mxfile>
